<?xml version="1.0" encoding="utf-8"?>
<!-- Generator: Adobe Illustrator 24.2.3, SVG Export Plug-In . SVG Version: 6.00 Build 0)  -->
<svg version="1.1" id="Layer_1" xmlns="http://www.w3.org/2000/svg" xmlns:xlink="http://www.w3.org/1999/xlink" x="0px" y="0px"
	 viewBox="0 0 877 243" style="enable-background:new 0 0 877 243;" xml:space="preserve">
<style type="text/css">
	.st0{fill:#FFFFFF;}
	.st1{fill:#FF2B06;}
	.st2{font-family:'Helvetica';}
	.st3{font-size:138px;}
</style>
<rect x="0.49" y="-0.42" class="st0" width="876.02" height="354.83"/>
<g>
	<g>
		<path class="st1" d="M60.86,188.54l-7.57-10.91h7.21l4.05,6.01l4.01-6.01h6.99l-7.57,10.77l8.5,12.24h-7.21l-4.81-7.25l-4.81,7.25
			h-7.08L60.86,188.54z"/>
		<path d="M106.44,187.03H83.96v-4.76h22.48V187.03z M106.44,196.55H83.96v-4.76h22.48V196.55z"/>
		<path d="M123.66,174.07h-6.32v-5.21h6.32V174.07z M117.34,177.63h6.32v23.01h-6.32V177.63z"/>
		<path d="M127.76,177.63h6.01v3.2h0.13c1.6-2.58,4.36-3.83,7.03-3.83c6.72,0,8.41,3.78,8.41,9.48v14.15h-6.32v-13
			c0-3.78-1.11-5.65-4.05-5.65c-3.43,0-4.9,1.91-4.9,6.59v12.06h-6.32V177.63z"/>
		<path d="M169.68,197.71h-0.09c-1.47,2.49-4.05,3.56-6.99,3.56c-6.94,0-10.33-5.96-10.33-12.33c0-6.19,3.43-11.93,10.19-11.93
			c2.71,0,5.39,1.16,6.85,3.43h-0.04h0.09v-11.57h6.32v31.78h-6.01V197.71z M164.16,181.77c-4.14,0-5.56,3.56-5.56,7.34
			c0,3.61,1.65,7.39,5.56,7.39c4.18,0,5.43-3.65,5.43-7.43C169.59,185.33,168.26,181.77,164.16,181.77z"/>
		<path d="M184.77,190.68c0.18,4.01,2.14,5.83,5.65,5.83c2.54,0,4.58-1.56,4.98-2.98h5.56c-1.78,5.43-5.56,7.74-10.77,7.74
			c-7.26,0-11.75-4.98-11.75-12.11c0-6.9,4.76-12.15,11.75-12.15c7.83,0,11.62,6.59,11.17,13.66H184.77z M195.05,186.67
			c-0.58-3.2-1.96-4.9-5.03-4.9c-4.01,0-5.16,3.12-5.25,4.9H195.05z"/>
		<path d="M204.22,177.63h6.01v2.94h0.09c1.51-2.45,4.01-3.56,6.85-3.56c7.21,0,10.46,5.83,10.46,12.37
			c0,6.14-3.38,11.88-10.1,11.88c-2.76,0-5.39-1.2-6.9-3.47h-0.09v10.95h-6.32V177.63z M221.31,189.21c0-3.65-1.47-7.43-5.52-7.43
			c-4.14,0-5.47,3.69-5.47,7.43s1.42,7.3,5.52,7.3C219.97,196.51,221.31,192.95,221.31,189.21z"/>
		<path d="M235.73,190.68c0.18,4.01,2.14,5.83,5.65,5.83c2.54,0,4.58-1.56,4.98-2.98h5.56c-1.78,5.43-5.56,7.74-10.77,7.74
			c-7.26,0-11.75-4.98-11.75-12.11c0-6.9,4.76-12.15,11.75-12.15c7.83,0,11.62,6.59,11.17,13.66H235.73z M246.01,186.67
			c-0.58-3.2-1.96-4.9-5.03-4.9c-4.01,0-5.16,3.12-5.25,4.9H246.01z"/>
		<path d="M255.18,177.63h6.01v3.2h0.13c1.6-2.58,4.36-3.83,7.03-3.83c6.72,0,8.41,3.78,8.41,9.48v14.15h-6.32v-13
			c0-3.78-1.11-5.65-4.05-5.65c-3.43,0-4.9,1.91-4.9,6.59v12.06h-6.32V177.63z"/>
		<path d="M297.1,197.71h-0.09c-1.47,2.49-4.05,3.56-6.99,3.56c-6.94,0-10.33-5.96-10.33-12.33c0-6.19,3.43-11.93,10.19-11.93
			c2.71,0,5.39,1.16,6.85,3.43h-0.04h0.09v-11.57h6.32v31.78h-6.01V197.71z M291.59,181.77c-4.14,0-5.56,3.56-5.56,7.34
			c0,3.61,1.65,7.39,5.56,7.39c4.18,0,5.43-3.65,5.43-7.43C297.02,185.33,295.68,181.77,291.59,181.77z"/>
		<path d="M312.19,190.68c0.18,4.01,2.14,5.83,5.65,5.83c2.54,0,4.58-1.56,4.98-2.98h5.56c-1.78,5.43-5.56,7.74-10.77,7.74
			c-7.26,0-11.75-4.98-11.75-12.11c0-6.9,4.76-12.15,11.75-12.15c7.83,0,11.62,6.59,11.17,13.66H312.19z M322.47,186.67
			c-0.58-3.2-1.96-4.9-5.03-4.9c-4.01,0-5.16,3.12-5.25,4.9H322.47z"/>
		<path d="M331.64,177.63h6.01v3.2h0.13c1.6-2.58,4.36-3.83,7.03-3.83c6.72,0,8.41,3.78,8.41,9.48v14.15h-6.32v-13
			c0-3.78-1.11-5.65-4.05-5.65c-3.43,0-4.9,1.91-4.9,6.59v12.06h-6.32V177.63z"/>
		<path d="M365.15,177.63h4.63v4.23h-4.63v11.39c0,2.14,0.53,2.67,2.67,2.67c0.67,0,1.29-0.04,1.96-0.18v4.94
			c-1.07,0.18-2.45,0.22-3.69,0.22c-3.87,0-7.26-0.89-7.26-5.47v-13.58h-3.83v-4.23h3.83v-6.9h6.32V177.63z"/>
		<path d="M372.1,168.87h6.32v31.78h-6.32V168.87z"/>
		<path d="M393.86,203.54c-1.38,3.69-3.56,5.21-7.92,5.21c-1.29,0-2.58-0.09-3.87-0.22v-5.21c1.2,0.09,2.45,0.27,3.69,0.22
			c2.18-0.22,2.89-2.49,2.18-4.32l-8.1-21.59h6.77l5.21,15.76h0.09l5.03-15.76h6.54L393.86,203.54z"/>
		<path d="M427.37,177.01c7.25,0,11.93,4.81,11.93,12.15c0,7.3-4.67,12.11-11.93,12.11c-7.21,0-11.88-4.81-11.88-12.11
			C415.49,181.82,420.16,177.01,427.37,177.01z M427.37,196.51c4.32,0,5.61-3.69,5.61-7.34c0-3.69-1.29-7.39-5.61-7.39
			c-4.27,0-5.56,3.69-5.56,7.39C421.81,192.81,423.1,196.51,427.37,196.51z"/>
		<path d="M441.62,177.63h6.01v4.27h0.09c1.16-2.89,4.27-4.9,7.34-4.9c0.44,0,0.98,0.09,1.38,0.22v5.88
			c-0.58-0.13-1.51-0.22-2.27-0.22c-4.63,0-6.23,3.34-6.23,7.39v10.37h-6.32V177.63z"/>
		<path d="M480.16,199.18c0,3.78-1.34,10.19-11.93,10.19c-4.54,0-9.84-2.14-10.15-7.39h6.28c0.58,2.36,2.49,3.16,4.72,3.16
			c3.52,0,5.12-2.4,5.07-5.7v-3.03h-0.09c-1.38,2.4-4.14,3.56-6.9,3.56c-6.9,0-9.84-5.25-9.84-11.57c0-5.96,3.43-11.39,9.88-11.39
			c3.03,0,5.34,1.02,6.85,3.69h0.09v-3.07h6.01V199.18z M474.15,188.85c0-3.74-1.29-7.08-5.39-7.08c-3.56,0-5.12,3.12-5.12,6.54
			c0,3.29,1.25,6.9,5.12,6.9C472.37,195.22,474.15,192.14,474.15,188.85z"/>
		<path d="M483.18,184.71c0.36-5.92,5.65-7.7,10.82-7.7c4.58,0,10.1,1.02,10.1,6.54v11.97c0,2.09,0.22,4.18,0.8,5.12h-6.41
			c-0.22-0.71-0.4-1.47-0.44-2.23c-2,2.09-4.94,2.85-7.75,2.85c-4.36,0-7.83-2.18-7.83-6.9c0-5.21,3.92-6.45,7.83-6.99
			c3.87-0.58,7.48-0.44,7.48-3.03c0-2.72-1.87-3.12-4.1-3.12c-2.4,0-3.96,0.98-4.18,3.47H483.18z M497.78,189.38
			c-1.07,0.94-3.29,0.98-5.25,1.34c-1.96,0.4-3.74,1.07-3.74,3.38c0,2.36,1.83,2.94,3.87,2.94c4.94,0,5.12-3.92,5.12-5.3V189.38z"/>
		<path d="M508.11,177.63h6.01v3.2h0.13c1.6-2.58,4.36-3.83,7.03-3.83c6.72,0,8.41,3.78,8.41,9.48v14.15h-6.32v-13
			c0-3.78-1.11-5.65-4.05-5.65c-3.43,0-4.9,1.91-4.9,6.59v12.06h-6.32V177.63z"/>
		<path d="M539.22,174.07h-6.32v-5.21h6.32V174.07z M532.9,177.63h6.32v23.01h-6.32V177.63z"/>
		<path d="M541.89,195.88l11.97-13.49h-11.08v-4.76h19.41v4.76l-11.97,13.49h12.82v4.76h-21.14V195.88z"/>
		<path d="M570.73,190.68c0.18,4.01,2.14,5.83,5.65,5.83c2.54,0,4.59-1.56,4.99-2.98h5.56c-1.78,5.43-5.56,7.74-10.77,7.74
			c-7.25,0-11.75-4.98-11.75-12.11c0-6.9,4.76-12.15,11.75-12.15c7.83,0,11.62,6.59,11.17,13.66H570.73z M581.01,186.67
			c-0.58-3.2-1.96-4.9-5.03-4.9c-4.01,0-5.16,3.12-5.25,4.9H581.01z"/>
		<path d="M606.6,197.71h-0.09c-1.47,2.49-4.05,3.56-6.99,3.56c-6.94,0-10.33-5.96-10.33-12.33c0-6.19,3.43-11.93,10.19-11.93
			c2.71,0,5.39,1.16,6.85,3.43h-0.04h0.09v-11.57h6.32v31.78h-6.01V197.71z M601.08,181.77c-4.14,0-5.56,3.56-5.56,7.34
			c0,3.61,1.65,7.39,5.56,7.39c4.18,0,5.43-3.65,5.43-7.43C606.51,185.33,605.18,181.77,601.08,181.77z"/>
		<path d="M635.67,174.74h-9.52v-5.88h26.04v5.88h-9.53v25.9h-6.99V174.74z"/>
		<path d="M654.94,168.87h23.77v5.88h-16.78v6.81h15.4v5.43h-15.4v7.79h17.14v5.88h-24.12V168.87z"/>
		<path d="M682,168.87h13.71c8.23,0,14.42,5.16,14.42,15.71c0,9.21-4.72,16.07-14.42,16.07H682V168.87z M688.98,194.77h6.23
			c4.05,0,7.92-2.49,7.92-9.52c0-6.41-2.23-10.5-9.17-10.5h-4.98V194.77z"/>
		<path d="M730.11,190.68c0.18,4.01,2.14,5.83,5.65,5.83c2.54,0,4.59-1.56,4.99-2.98h5.56c-1.78,5.43-5.56,7.74-10.77,7.74
			c-7.25,0-11.75-4.98-11.75-12.11c0-6.9,4.76-12.15,11.75-12.15c7.83,0,11.62,6.59,11.17,13.66H730.11z M740.39,186.67
			c-0.58-3.2-1.96-4.9-5.03-4.9c-4.01,0-5.16,3.12-5.25,4.9H740.39z"/>
		<path d="M761.4,200.65h-7.03l-7.88-23.01h6.63l4.85,15.71h0.09l4.85-15.71h6.28L761.4,200.65z"/>
		<path d="M775.24,190.68c0.18,4.01,2.14,5.83,5.65,5.83c2.54,0,4.58-1.56,4.99-2.98h5.56c-1.78,5.43-5.56,7.74-10.77,7.74
			c-7.25,0-11.75-4.98-11.75-12.11c0-6.9,4.76-12.15,11.75-12.15c7.83,0,11.62,6.59,11.17,13.66H775.24z M785.52,186.67
			c-0.58-3.2-1.96-4.9-5.03-4.9c-4.01,0-5.16,3.12-5.25,4.9H785.52z"/>
		<path d="M794.69,177.63h6.01v3.2h0.13c1.6-2.58,4.36-3.83,7.03-3.83c6.72,0,8.41,3.78,8.41,9.48v14.15h-6.32v-13
			c0-3.78-1.11-5.65-4.05-5.65c-3.43,0-4.9,1.91-4.9,6.59v12.06h-6.32V177.63z"/>
		<path d="M828.2,177.63h4.63v4.23h-4.63v11.39c0,2.14,0.53,2.67,2.67,2.67c0.67,0,1.29-0.04,1.96-0.18v4.94
			c-1.07,0.18-2.45,0.22-3.69,0.22c-3.87,0-7.25-0.89-7.25-5.47v-13.58h-3.83v-4.23h3.83v-6.9h6.32V177.63z"/>
	</g>
</g>
<g>
	<g>
		<path class="st1" d="M79.91,63.72H50.26V36.6h91.88v27.12h-29.64v78.7H79.91V63.72z"/>
		<path class="st1" d="M147.2,36.6h89.19v27.12H179.8v13.19h56.59v25.2H179.8v13.19h56.6v27.12H147.2V36.6z"/>
		<path class="st1" d="M241.88,36.6h53.5c35.27,0,47.73,26.08,47.73,52.75c0,32.47-17.19,53.06-54.1,53.06h-47.13V36.6z
			 M274.48,115.3h12.75c20.31,0,23.28-16.46,23.28-26.4c0-6.66-2.09-25.18-25.65-25.18h-10.38V115.3z"/>
	</g>
	<g>
		<g>
			<path class="st1" d="M389.96,101.64l-9.95-16.49l-9.7,16.49h-23.89L369.1,68.3l-21.84-31.9h23.89l8.85,15.77l9.1-15.77H413
				l-21.83,31.9l22.68,33.35H389.96z"/>
		</g>
	</g>
</g>
<text transform="matrix(1 0 0 1 427.7115 139.4693)" class="st2 st3">Sofia</text>
</svg>
