<?xml version="1.0" encoding="utf-8"?>
<!-- Generator: Adobe Illustrator 24.2.3, SVG Export Plug-In . SVG Version: 6.00 Build 0)  -->
<svg version="1.1" id="Layer_1" xmlns="http://www.w3.org/2000/svg" xmlns:xlink="http://www.w3.org/1999/xlink" x="0px" y="0px"
	 viewBox="0 0 879 261" style="enable-background:new 0 0 879 261;" xml:space="preserve">
<style type="text/css">
	.st0{fill:none;}
	.st1{fill:#FF2B06;}
	.st2{fill:#FFFFFF;}
	.st3{font-family:'Helvetica';}
	.st4{font-size:138px;}
</style>
<rect x="0.18" y="0.24" class="st0" width="878.64" height="260.53"/>
<rect x="0.18" y="0.24" class="st0" width="878.64" height="260.53"/>
<g>
	<g>
		<path class="st1" d="M59.75,198.66l-7.57-10.91h7.21l4.05,6.01l4.01-6.01h6.99l-7.57,10.77l8.5,12.24h-7.21l-4.81-7.25l-4.81,7.25
			h-7.08L59.75,198.66z"/>
		<path class="st2" d="M105.33,197.15H82.85v-4.76h22.48V197.15z M105.33,206.67H82.85v-4.76h22.48V206.67z"/>
		<path class="st2" d="M122.55,184.19h-6.32v-5.21h6.32V184.19z M116.23,187.75h6.32v23.01h-6.32V187.75z"/>
		<path class="st2" d="M126.64,187.75h6.01v3.2h0.13c1.6-2.58,4.36-3.83,7.03-3.83c6.72,0,8.41,3.78,8.41,9.48v14.15h-6.32v-13
			c0-3.78-1.11-5.65-4.05-5.65c-3.43,0-4.9,1.91-4.9,6.59v12.06h-6.32V187.75z"/>
		<path class="st2" d="M168.57,207.83h-0.09c-1.47,2.49-4.05,3.56-6.99,3.56c-6.94,0-10.33-5.96-10.33-12.33
			c0-6.19,3.43-11.93,10.19-11.93c2.71,0,5.39,1.16,6.85,3.43h-0.04h0.09v-11.57h6.32v31.78h-6.01V207.83z M163.05,191.89
			c-4.14,0-5.56,3.56-5.56,7.34c0,3.6,1.65,7.39,5.56,7.39c4.18,0,5.43-3.65,5.43-7.43C168.48,195.46,167.14,191.89,163.05,191.89z"
			/>
		<path class="st2" d="M183.66,200.8c0.18,4.01,2.14,5.83,5.65,5.83c2.54,0,4.58-1.56,4.98-2.98h5.56
			c-1.78,5.43-5.56,7.74-10.77,7.74c-7.26,0-11.75-4.98-11.75-12.11c0-6.9,4.76-12.15,11.75-12.15c7.83,0,11.62,6.59,11.17,13.66
			H183.66z M193.94,196.79c-0.58-3.2-1.96-4.9-5.03-4.9c-4.01,0-5.16,3.12-5.25,4.9H193.94z"/>
		<path class="st2" d="M203.1,187.75h6.01v2.94h0.09c1.51-2.45,4.01-3.56,6.85-3.56c7.21,0,10.46,5.83,10.46,12.37
			c0,6.14-3.38,11.88-10.1,11.88c-2.76,0-5.39-1.2-6.9-3.47h-0.09v10.95h-6.32V187.75z M220.2,199.33c0-3.65-1.47-7.43-5.52-7.43
			c-4.14,0-5.47,3.69-5.47,7.43c0,3.74,1.42,7.3,5.52,7.3C218.86,206.63,220.2,203.07,220.2,199.33z"/>
		<path class="st2" d="M234.62,200.8c0.18,4.01,2.14,5.83,5.65,5.83c2.54,0,4.58-1.56,4.98-2.98h5.56
			c-1.78,5.43-5.56,7.74-10.77,7.74c-7.26,0-11.75-4.98-11.75-12.11c0-6.9,4.76-12.15,11.75-12.15c7.83,0,11.62,6.59,11.17,13.66
			H234.62z M244.9,196.79c-0.58-3.2-1.96-4.9-5.03-4.9c-4.01,0-5.16,3.12-5.25,4.9H244.9z"/>
		<path class="st2" d="M254.06,187.75h6.01v3.2h0.13c1.6-2.58,4.36-3.83,7.03-3.83c6.72,0,8.41,3.78,8.41,9.48v14.15h-6.32v-13
			c0-3.78-1.11-5.65-4.05-5.65c-3.43,0-4.9,1.91-4.9,6.59v12.06h-6.32V187.75z"/>
		<path class="st2" d="M295.99,207.83h-0.09c-1.47,2.49-4.05,3.56-6.99,3.56c-6.94,0-10.33-5.96-10.33-12.33
			c0-6.19,3.43-11.93,10.19-11.93c2.71,0,5.39,1.16,6.85,3.43h-0.04h0.09v-11.57H302v31.78h-6.01V207.83z M290.47,191.89
			c-4.14,0-5.56,3.56-5.56,7.34c0,3.6,1.65,7.39,5.56,7.39c4.18,0,5.43-3.65,5.43-7.43C295.9,195.46,294.57,191.89,290.47,191.89z"
			/>
		<path class="st2" d="M311.08,200.8c0.18,4.01,2.14,5.83,5.65,5.83c2.54,0,4.58-1.56,4.98-2.98h5.56
			c-1.78,5.43-5.56,7.74-10.77,7.74c-7.26,0-11.75-4.98-11.75-12.11c0-6.9,4.76-12.15,11.75-12.15c7.83,0,11.62,6.59,11.17,13.66
			H311.08z M321.36,196.79c-0.58-3.2-1.96-4.9-5.03-4.9c-4.01,0-5.16,3.12-5.25,4.9H321.36z"/>
		<path class="st2" d="M330.53,187.75h6.01v3.2h0.13c1.6-2.58,4.36-3.83,7.03-3.83c6.72,0,8.41,3.78,8.41,9.48v14.15h-6.32v-13
			c0-3.78-1.11-5.65-4.05-5.65c-3.43,0-4.9,1.91-4.9,6.59v12.06h-6.32V187.75z"/>
		<path class="st2" d="M364.04,187.75h4.63v4.23h-4.63v11.39c0,2.14,0.53,2.67,2.67,2.67c0.67,0,1.29-0.04,1.96-0.18v4.94
			c-1.07,0.18-2.45,0.22-3.69,0.22c-3.87,0-7.26-0.89-7.26-5.47v-13.58h-3.83v-4.23h3.83v-6.9h6.32V187.75z"/>
		<path class="st2" d="M370.98,178.99h6.32v31.78h-6.32V178.99z"/>
		<path class="st2" d="M392.75,213.66c-1.38,3.69-3.56,5.21-7.92,5.21c-1.29,0-2.58-0.09-3.87-0.22v-5.21
			c1.2,0.09,2.45,0.27,3.69,0.22c2.18-0.22,2.89-2.49,2.18-4.32l-8.1-21.59h6.77l5.21,15.76h0.09l5.03-15.76h6.54L392.75,213.66z"/>
		<path class="st2" d="M426.26,187.13c7.25,0,11.93,4.81,11.93,12.15c0,7.3-4.67,12.11-11.93,12.11c-7.21,0-11.88-4.81-11.88-12.11
			C414.38,191.94,419.05,187.13,426.26,187.13z M426.26,206.63c4.32,0,5.61-3.69,5.61-7.34c0-3.69-1.29-7.39-5.61-7.39
			c-4.27,0-5.56,3.69-5.56,7.39C420.7,202.93,421.99,206.63,426.26,206.63z"/>
		<path class="st2" d="M440.5,187.75h6.01v4.27h0.09c1.16-2.89,4.27-4.9,7.34-4.9c0.44,0,0.98,0.09,1.38,0.22v5.88
			c-0.58-0.13-1.51-0.22-2.27-0.22c-4.63,0-6.23,3.34-6.23,7.39v10.37h-6.32V187.75z"/>
		<path class="st2" d="M479.05,209.3c0,3.78-1.34,10.19-11.93,10.19c-4.54,0-9.84-2.14-10.15-7.39h6.28
			c0.58,2.36,2.49,3.16,4.72,3.16c3.52,0,5.12-2.4,5.07-5.7v-3.03h-0.09c-1.38,2.4-4.14,3.56-6.9,3.56c-6.9,0-9.84-5.25-9.84-11.57
			c0-5.96,3.43-11.39,9.88-11.39c3.03,0,5.34,1.02,6.85,3.69h0.09v-3.07h6.01V209.3z M473.04,198.97c0-3.74-1.29-7.08-5.39-7.08
			c-3.56,0-5.12,3.12-5.12,6.54c0,3.29,1.25,6.9,5.12,6.9C471.26,205.34,473.04,202.27,473.04,198.97z"/>
		<path class="st2" d="M482.07,194.83c0.36-5.92,5.65-7.7,10.82-7.7c4.58,0,10.1,1.02,10.1,6.54v11.97c0,2.09,0.22,4.18,0.8,5.12
			h-6.41c-0.22-0.71-0.4-1.47-0.44-2.23c-2,2.09-4.94,2.85-7.75,2.85c-4.36,0-7.83-2.18-7.83-6.9c0-5.21,3.92-6.45,7.83-6.99
			c3.87-0.58,7.48-0.44,7.48-3.03c0-2.72-1.87-3.12-4.1-3.12c-2.4,0-3.96,0.98-4.18,3.47H482.07z M496.67,199.51
			c-1.07,0.94-3.29,0.98-5.25,1.34c-1.96,0.4-3.74,1.07-3.74,3.38c0,2.36,1.83,2.94,3.87,2.94c4.94,0,5.12-3.92,5.12-5.3V199.51z"/>
		<path class="st2" d="M506.99,187.75H513v3.2h0.13c1.6-2.58,4.36-3.83,7.03-3.83c6.72,0,8.41,3.78,8.41,9.48v14.15h-6.32v-13
			c0-3.78-1.11-5.65-4.05-5.65c-3.43,0-4.9,1.91-4.9,6.59v12.06h-6.32V187.75z"/>
		<path class="st2" d="M538.1,184.19h-6.32v-5.21h6.32V184.19z M531.78,187.75h6.32v23.01h-6.32V187.75z"/>
		<path class="st2" d="M540.77,206l11.97-13.49h-11.08v-4.76h19.41v4.76L549.1,206h12.82v4.76h-21.14V206z"/>
		<path class="st2" d="M569.62,200.8c0.18,4.01,2.14,5.83,5.65,5.83c2.54,0,4.58-1.56,4.99-2.98h5.56
			c-1.78,5.43-5.56,7.74-10.77,7.74c-7.25,0-11.75-4.98-11.75-12.11c0-6.9,4.76-12.15,11.75-12.15c7.83,0,11.62,6.59,11.17,13.66
			H569.62z M579.9,196.79c-0.58-3.2-1.96-4.9-5.03-4.9c-4.01,0-5.16,3.12-5.25,4.9H579.9z"/>
		<path class="st2" d="M605.49,207.83h-0.09c-1.47,2.49-4.05,3.56-6.99,3.56c-6.94,0-10.33-5.96-10.33-12.33
			c0-6.19,3.43-11.93,10.19-11.93c2.71,0,5.39,1.16,6.85,3.43h-0.04h0.09v-11.57h6.32v31.78h-6.01V207.83z M599.97,191.89
			c-4.14,0-5.56,3.56-5.56,7.34c0,3.6,1.65,7.39,5.56,7.39c4.18,0,5.43-3.65,5.43-7.43C605.4,195.46,604.07,191.89,599.97,191.89z"
			/>
		<path class="st2" d="M634.55,184.86h-9.52v-5.88h26.04v5.88h-9.53v25.9h-6.99V184.86z"/>
		<path class="st2" d="M653.82,178.99h23.77v5.88h-16.78v6.81h15.4v5.43h-15.4v7.79h17.14v5.88h-24.12V178.99z"/>
		<path class="st2" d="M680.88,178.99h13.71c8.23,0,14.42,5.16,14.42,15.71c0,9.21-4.72,16.07-14.42,16.07h-13.71V178.99z
			 M687.87,204.89h6.23c4.05,0,7.92-2.49,7.92-9.52c0-6.41-2.23-10.5-9.17-10.5h-4.98V204.89z"/>
		<path class="st2" d="M728.99,200.8c0.18,4.01,2.14,5.83,5.65,5.83c2.54,0,4.59-1.56,4.99-2.98h5.56
			c-1.78,5.43-5.56,7.74-10.77,7.74c-7.25,0-11.75-4.98-11.75-12.11c0-6.9,4.76-12.15,11.75-12.15c7.83,0,11.62,6.59,11.17,13.66
			H728.99z M739.28,196.79c-0.58-3.2-1.96-4.9-5.03-4.9c-4.01,0-5.16,3.12-5.25,4.9H739.28z"/>
		<path class="st2" d="M760.28,210.77h-7.03l-7.88-23.01H752l4.85,15.71h0.09l4.85-15.71h6.28L760.28,210.77z"/>
		<path class="st2" d="M774.12,200.8c0.18,4.01,2.14,5.83,5.65,5.83c2.54,0,4.58-1.56,4.99-2.98h5.56
			c-1.78,5.43-5.56,7.74-10.77,7.74c-7.25,0-11.75-4.98-11.75-12.11c0-6.9,4.76-12.15,11.75-12.15c7.83,0,11.62,6.59,11.17,13.66
			H774.12z M784.41,196.79c-0.58-3.2-1.96-4.9-5.03-4.9c-4.01,0-5.16,3.12-5.25,4.9H784.41z"/>
		<path class="st2" d="M793.57,187.75h6.01v3.2h0.13c1.6-2.58,4.36-3.83,7.03-3.83c6.72,0,8.41,3.78,8.41,9.48v14.15h-6.32v-13
			c0-3.78-1.11-5.65-4.05-5.65c-3.43,0-4.9,1.91-4.9,6.59v12.06h-6.32V187.75z"/>
		<path class="st2" d="M827.09,187.75h4.63v4.23h-4.63v11.39c0,2.14,0.53,2.67,2.67,2.67c0.67,0,1.29-0.04,1.96-0.18v4.94
			c-1.07,0.18-2.45,0.22-3.69,0.22c-3.87,0-7.25-0.89-7.25-5.47v-13.58h-3.83v-4.23h3.83v-6.9h6.32V187.75z"/>
	</g>
</g>
<g>
	<g>
		<path class="st1" d="M78.8,73.84H49.14V46.72h91.88v27.12h-29.64v78.7H78.8V73.84z"/>
		<path class="st1" d="M146.09,46.72h89.19v27.12h-56.59v13.19h56.59v25.2h-56.59v13.19h56.6v27.12h-89.21V46.72z"/>
		<path class="st1" d="M240.77,46.72h53.5c35.27,0,47.73,26.08,47.73,52.75c0,32.47-17.19,53.06-54.1,53.06h-47.13V46.72z
			 M273.37,125.42h12.75c20.31,0,23.28-16.46,23.28-26.4c0-6.66-2.09-25.18-25.65-25.18h-10.38V125.42z"/>
	</g>
	<g>
		<g>
			<path class="st1" d="M388.84,111.76l-9.95-16.49l-9.7,16.49h-23.89l22.68-33.35l-21.84-31.9h23.89l8.85,15.77l9.1-15.77h23.89
				l-21.83,31.9l22.68,33.35H388.84z"/>
		</g>
	</g>
</g>
<text transform="matrix(1 0 0 1 426.5978 149.5903)" class="st2 st3 st4">Sofia</text>
</svg>
