<?xml version="1.0" encoding="utf-8"?>
<!-- Generator: Adobe Illustrator 24.2.3, SVG Export Plug-In . SVG Version: 6.00 Build 0)  -->
<svg version="1.1" id="Layer_1" xmlns="http://www.w3.org/2000/svg" xmlns:xlink="http://www.w3.org/1999/xlink" x="0px" y="0px"
	 viewBox="0 0 1224 792" style="enable-background:new 0 0 1224 792;" xml:space="preserve">
<style type="text/css">
	.st0{fill:none;}
	.st1{fill:#FF2B06;}
	.st2{fill:#FFFFFF;}
	.st3{font-family:'Helvetica';}
	.st4{font-size:138px;}
</style>
<rect x="32.33" y="188.7" class="st0" width="518.55" height="421.15"/>
<g>
	<g>
		<path class="st1" d="M91.91,502.09l-7.57-10.91h7.21l4.05,6.01l4.01-6.01h6.99l-7.57,10.77l8.5,12.24h-7.21l-4.81-7.25l-4.81,7.25
			h-7.08L91.91,502.09z"/>
		<path class="st2" d="M137.49,500.58h-22.48v-4.76h22.48V500.58z M137.49,510.1h-22.48v-4.76h22.48V510.1z"/>
		<path class="st2" d="M154.71,487.63h-6.32v-5.21h6.32V487.63z M148.39,491.19h6.32v23.01h-6.32V491.19z"/>
		<path class="st2" d="M158.8,491.19h6.01v3.2h0.13c1.6-2.58,4.36-3.83,7.03-3.83c6.72,0,8.41,3.78,8.41,9.48v14.15h-6.32v-13
			c0-3.78-1.11-5.65-4.05-5.65c-3.43,0-4.9,1.91-4.9,6.59v12.06h-6.32V491.19z"/>
		<path class="st2" d="M200.73,511.26h-0.09c-1.47,2.49-4.05,3.56-6.99,3.56c-6.94,0-10.33-5.96-10.33-12.33
			c0-6.19,3.43-11.93,10.19-11.93c2.71,0,5.39,1.16,6.85,3.43h-0.04h0.09v-11.57h6.32v31.78h-6.01V511.26z M195.21,495.33
			c-4.14,0-5.56,3.56-5.56,7.34c0,3.61,1.65,7.39,5.56,7.39c4.18,0,5.43-3.65,5.43-7.43C200.64,498.89,199.31,495.33,195.21,495.33z
			"/>
		<path class="st2" d="M215.82,504.23c0.18,4.01,2.14,5.83,5.65,5.83c2.54,0,4.58-1.56,4.98-2.98h5.56
			c-1.78,5.43-5.56,7.74-10.77,7.74c-7.26,0-11.75-4.98-11.75-12.11c0-6.9,4.76-12.15,11.75-12.15c7.83,0,11.62,6.59,11.17,13.66
			H215.82z M226.1,500.22c-0.58-3.2-1.96-4.9-5.03-4.9c-4.01,0-5.16,3.12-5.25,4.9H226.1z"/>
		<path class="st2" d="M235.27,491.19h6.01v2.94h0.09c1.51-2.45,4.01-3.56,6.85-3.56c7.21,0,10.46,5.83,10.46,12.37
			c0,6.14-3.38,11.88-10.1,11.88c-2.76,0-5.39-1.2-6.9-3.47h-0.09v10.95h-6.32V491.19z M252.36,502.76c0-3.65-1.47-7.43-5.52-7.43
			c-4.14,0-5.47,3.69-5.47,7.43s1.42,7.3,5.52,7.3C251.02,510.06,252.36,506.5,252.36,502.76z"/>
		<path class="st2" d="M266.78,504.23c0.18,4.01,2.14,5.83,5.65,5.83c2.54,0,4.58-1.56,4.98-2.98h5.56
			c-1.78,5.43-5.56,7.74-10.77,7.74c-7.26,0-11.75-4.98-11.75-12.11c0-6.9,4.76-12.15,11.75-12.15c7.83,0,11.62,6.59,11.17,13.66
			H266.78z M277.06,500.22c-0.58-3.2-1.96-4.9-5.03-4.9c-4.01,0-5.16,3.12-5.25,4.9H277.06z"/>
		<path class="st2" d="M286.23,491.19h6.01v3.2h0.13c1.6-2.58,4.36-3.83,7.03-3.83c6.72,0,8.41,3.78,8.41,9.48v14.15h-6.32v-13
			c0-3.78-1.11-5.65-4.05-5.65c-3.43,0-4.9,1.91-4.9,6.59v12.06h-6.32V491.19z"/>
		<path class="st2" d="M328.15,511.26h-0.09c-1.47,2.49-4.05,3.56-6.99,3.56c-6.94,0-10.33-5.96-10.33-12.33
			c0-6.19,3.43-11.93,10.19-11.93c2.71,0,5.39,1.16,6.85,3.43h-0.04h0.09v-11.57h6.32v31.78h-6.01V511.26z M322.63,495.33
			c-4.14,0-5.56,3.56-5.56,7.34c0,3.61,1.65,7.39,5.56,7.39c4.18,0,5.43-3.65,5.43-7.43C328.06,498.89,326.73,495.33,322.63,495.33z
			"/>
		<path class="st2" d="M343.24,504.23c0.18,4.01,2.14,5.83,5.65,5.83c2.54,0,4.58-1.56,4.98-2.98h5.56
			c-1.78,5.43-5.56,7.74-10.77,7.74c-7.26,0-11.75-4.98-11.75-12.11c0-6.9,4.76-12.15,11.75-12.15c7.83,0,11.62,6.59,11.17,13.66
			H343.24z M353.52,500.22c-0.58-3.2-1.96-4.9-5.03-4.9c-4.01,0-5.16,3.12-5.25,4.9H353.52z"/>
		<path class="st2" d="M362.69,491.19h6.01v3.2h0.13c1.6-2.58,4.36-3.83,7.03-3.83c6.72,0,8.41,3.78,8.41,9.48v14.15h-6.32v-13
			c0-3.78-1.11-5.65-4.05-5.65c-3.43,0-4.9,1.91-4.9,6.59v12.06h-6.32V491.19z"/>
		<path class="st2" d="M396.2,491.19h4.63v4.23h-4.63v11.39c0,2.14,0.53,2.67,2.67,2.67c0.67,0,1.29-0.04,1.96-0.18v4.94
			c-1.07,0.18-2.45,0.22-3.69,0.22c-3.87,0-7.26-0.89-7.26-5.47v-13.58h-3.83v-4.23h3.83v-6.9h6.32V491.19z"/>
		<path class="st2" d="M403.14,482.42h6.32v31.78h-6.32V482.42z"/>
		<path class="st2" d="M424.91,517.09c-1.38,3.69-3.56,5.21-7.92,5.21c-1.29,0-2.58-0.09-3.87-0.22v-5.21
			c1.2,0.09,2.45,0.27,3.69,0.22c2.18-0.22,2.89-2.49,2.18-4.32l-8.1-21.59h6.77l5.21,15.76h0.09l5.03-15.76h6.54L424.91,517.09z"/>
		<path class="st2" d="M95.52,538.07c7.25,0,11.93,4.81,11.93,12.15c0,7.3-4.67,12.11-11.93,12.11c-7.21,0-11.88-4.81-11.88-12.11
			C83.63,542.87,88.31,538.07,95.52,538.07z M95.52,557.56c4.32,0,5.61-3.69,5.61-7.34c0-3.69-1.29-7.39-5.61-7.39
			c-4.27,0-5.56,3.69-5.56,7.39C89.95,553.87,91.24,557.56,95.52,557.56z"/>
		<path class="st2" d="M109.76,538.69h6.01v4.27h0.09c1.16-2.89,4.27-4.9,7.34-4.9c0.44,0,0.98,0.09,1.38,0.22v5.88
			c-0.58-0.13-1.51-0.22-2.27-0.22c-4.63,0-6.23,3.34-6.23,7.39v10.37h-6.32V538.69z"/>
		<path class="st2" d="M148.3,560.23c0,3.78-1.34,10.19-11.93,10.19c-4.54,0-9.84-2.14-10.15-7.39h6.28
			c0.58,2.36,2.49,3.16,4.72,3.16c3.52,0,5.12-2.4,5.07-5.7v-3.03h-0.09c-1.38,2.4-4.14,3.56-6.9,3.56c-6.9,0-9.84-5.25-9.84-11.57
			c0-5.96,3.43-11.39,9.88-11.39c3.03,0,5.34,1.02,6.85,3.69h0.09v-3.07h6.01V560.23z M142.29,549.91c0-3.74-1.29-7.08-5.39-7.08
			c-3.56,0-5.12,3.12-5.12,6.54c0,3.29,1.25,6.9,5.12,6.9C140.51,556.27,142.29,553.2,142.29,549.91z"/>
		<path class="st2" d="M151.33,545.77c0.36-5.92,5.65-7.7,10.82-7.7c4.58,0,10.1,1.02,10.1,6.54v11.97c0,2.09,0.22,4.18,0.8,5.12
			h-6.41c-0.22-0.71-0.4-1.47-0.44-2.23c-2,2.09-4.94,2.85-7.75,2.85c-4.36,0-7.83-2.18-7.83-6.9c0-5.21,3.92-6.45,7.83-6.99
			c3.87-0.58,7.48-0.44,7.48-3.03c0-2.72-1.87-3.12-4.1-3.12c-2.4,0-3.96,0.98-4.18,3.47H151.33z M165.93,550.44
			c-1.07,0.94-3.29,0.98-5.25,1.34c-1.96,0.4-3.74,1.07-3.74,3.38c0,2.36,1.83,2.94,3.87,2.94c4.94,0,5.12-3.92,5.12-5.3V550.44z"/>
		<path class="st2" d="M176.25,538.69h6.01v3.2h0.13c1.6-2.58,4.36-3.83,7.03-3.83c6.72,0,8.41,3.78,8.41,9.48v14.15h-6.32v-13
			c0-3.78-1.11-5.65-4.05-5.65c-3.43,0-4.9,1.91-4.9,6.59v12.06h-6.32V538.69z"/>
		<path class="st2" d="M207.36,535.13h-6.32v-5.21h6.32V535.13z M201.04,538.69h6.32v23.01h-6.32V538.69z"/>
		<path class="st2" d="M210.03,556.94L222,543.45h-11.08v-4.76h19.41v4.76l-11.97,13.49h12.82v4.76h-21.14V556.94z"/>
		<path class="st2" d="M238.87,551.73c0.18,4.01,2.14,5.83,5.65,5.83c2.54,0,4.58-1.56,4.99-2.98h5.56
			c-1.78,5.43-5.56,7.74-10.77,7.74c-7.25,0-11.75-4.98-11.75-12.11c0-6.9,4.76-12.15,11.75-12.15c7.83,0,11.62,6.59,11.17,13.66
			H238.87z M249.15,547.73c-0.58-3.2-1.96-4.9-5.03-4.9c-4.01,0-5.16,3.12-5.25,4.9H249.15z"/>
		<path class="st2" d="M274.75,558.76h-0.09c-1.47,2.49-4.05,3.56-6.99,3.56c-6.94,0-10.33-5.96-10.33-12.33
			c0-6.19,3.43-11.93,10.19-11.93c2.71,0,5.39,1.16,6.85,3.43h-0.04h0.09v-11.57h6.32v31.78h-6.01V558.76z M269.23,542.83
			c-4.14,0-5.56,3.56-5.56,7.34c0,3.61,1.65,7.39,5.56,7.39c4.18,0,5.43-3.65,5.43-7.43C274.66,546.39,273.32,542.83,269.23,542.83z
			"/>
		<path class="st2" d="M303.81,535.8h-9.52v-5.88h26.04v5.88h-9.53v25.9h-6.99V535.8z"/>
		<path class="st2" d="M323.08,529.92h23.77v5.88h-16.78v6.81h15.4v5.43h-15.4v7.79h17.14v5.88h-24.12V529.92z"/>
		<path class="st2" d="M350.14,529.92h13.71c8.23,0,14.42,5.16,14.42,15.71c0,9.21-4.72,16.07-14.42,16.07h-13.71V529.92z
			 M357.13,555.83h6.23c4.05,0,7.92-2.49,7.92-9.52c0-6.41-2.23-10.5-9.17-10.5h-4.98V555.83z"/>
		<path class="st2" d="M398.25,551.73c0.18,4.01,2.14,5.83,5.65,5.83c2.54,0,4.58-1.56,4.99-2.98h5.56
			c-1.78,5.43-5.56,7.74-10.77,7.74c-7.25,0-11.75-4.98-11.75-12.11c0-6.9,4.76-12.15,11.75-12.15c7.83,0,11.62,6.59,11.17,13.66
			H398.25z M408.53,547.73c-0.58-3.2-1.96-4.9-5.03-4.9c-4.01,0-5.16,3.12-5.25,4.9H408.53z"/>
		<path class="st2" d="M429.54,561.7h-7.03l-7.88-23.01h6.63l4.85,15.71h0.09l4.85-15.71h6.28L429.54,561.7z"/>
		<path class="st2" d="M443.38,551.73c0.18,4.01,2.14,5.83,5.65,5.83c2.54,0,4.58-1.56,4.99-2.98h5.56
			c-1.78,5.43-5.56,7.74-10.77,7.74c-7.25,0-11.75-4.98-11.75-12.11c0-6.9,4.76-12.15,11.75-12.15c7.83,0,11.62,6.59,11.17,13.66
			H443.38z M453.66,547.73c-0.58-3.2-1.96-4.9-5.03-4.9c-4.01,0-5.16,3.12-5.25,4.9H453.66z"/>
		<path class="st2" d="M462.83,538.69h6.01v3.2h0.13c1.6-2.58,4.36-3.83,7.03-3.83c6.72,0,8.41,3.78,8.41,9.48v14.15h-6.32v-13
			c0-3.78-1.11-5.65-4.05-5.65c-3.43,0-4.9,1.91-4.9,6.59v12.06h-6.32V538.69z"/>
		<path class="st2" d="M496.34,538.69h4.63v4.23h-4.63v11.39c0,2.14,0.53,2.67,2.67,2.67c0.67,0,1.29-0.04,1.96-0.18v4.94
			c-1.07,0.18-2.45,0.22-3.69,0.22c-3.87,0-7.25-0.89-7.25-5.47v-13.58h-3.83v-4.23h3.83v-6.9h6.32V538.69z"/>
	</g>
</g>
<g>
	<g>
		<path class="st1" d="M108.98,256.08H79.33v-27.12h91.88v27.12h-29.64v78.7h-32.58V256.08z"/>
		<path class="st1" d="M176.27,228.96h89.19v27.12h-56.59v13.19h56.59v25.2h-56.59v13.19h56.6v27.12h-89.21V228.96z"/>
		<path class="st1" d="M270.95,228.96h53.5c35.27,0,47.73,26.08,47.73,52.75c0,32.47-17.19,53.06-54.1,53.06h-47.13V228.96z
			 M303.55,307.66h12.75c20.31,0,23.28-16.46,23.28-26.4c0-6.66-2.09-25.18-25.65-25.18h-10.38V307.66z"/>
	</g>
	<g>
		<g>
			<path class="st1" d="M419.02,294l-9.95-16.49l-9.7,16.49h-23.89l22.68-33.35l-21.84-31.9h23.89l8.85,15.77l9.1-15.77h23.89
				l-21.83,31.9L442.92,294H419.02z"/>
		</g>
	</g>
</g>
<text transform="matrix(1 0 0 1 79.3266 453.8241)" class="st2 st3 st4">Sofia</text>
</svg>
